<svg width="23" height="13" viewBox="0 0 23 13" fill="none" xmlns="http://www.w3.org/2000/svg">
<path d="M0.0700912 1.99254C0.0700912 1.3707 0.493211 1.0354 1.33945 0.986623L4.60039 1.00491C4.81925 1.00491 4.96515 1.09636 5.03811 1.27925C5.37368 2.19372 5.74938 2.98322 6.16521 3.64773C6.58103 4.31225 7.12453 5.07735 7.79568 5.94305C7.85404 6.05279 7.94888 6.10766 8.08019 6.10766C8.18233 6.10766 8.26257 6.06498 8.32093 5.97963L8.38659 5.77845L8.40848 2.61438C8.40848 2.39491 8.34647 2.24859 8.22245 2.17543C8.09843 2.10228 7.86863 2.04741 7.53305 2.01083C7.27043 1.97425 7.13912 1.84013 7.13912 1.60846C7.13912 1.55969 7.14641 1.52311 7.161 1.49873C7.4674 0.706186 8.34282 0.309915 9.78726 0.309915L11.0129 0.291626C11.5673 0.291626 12.0269 0.407459 12.3916 0.639125C12.7564 0.87079 12.9388 1.23658 12.9388 1.73649V5.88818C13.0409 5.94915 13.1357 5.97963 13.2233 5.97963C13.4421 5.97963 13.6318 5.86989 13.7923 5.65042C15.3973 3.77271 16.2654 2.51684 16.3967 1.8828C16.3967 1.87061 16.4113 1.84013 16.4405 1.79136C16.5426 1.60846 16.7104 1.44995 16.9438 1.31583C17.1773 1.18171 17.3815 1.09026 17.5566 1.04149C17.615 1.01711 17.6806 1.00491 17.7536 1.00491H21.1459L21.3647 1.0232C21.6565 1.0232 21.8827 1.13903 22.0432 1.3707C22.1015 1.44386 22.1416 1.52311 22.1635 1.60846C22.1854 1.69381 22.2 1.77916 22.2073 1.86451C22.2146 1.94987 22.2182 1.99864 22.2182 2.01083V2.13886C22.1161 2.63877 21.8571 3.17221 21.4413 3.73918C21.0255 4.30615 20.4966 4.91884 19.8546 5.57726C19.2126 6.23568 18.8114 6.66853 18.6509 6.87581C18.5196 7.02213 18.4539 7.15625 18.4539 7.27818C18.4539 7.37572 18.5123 7.48546 18.629 7.60739L21.8243 10.9726C21.9994 11.1677 22.0869 11.3811 22.0869 11.6128C22.0869 11.8932 21.9556 12.1249 21.693 12.3078C21.4304 12.4907 21.1167 12.5943 20.7519 12.6187L20.3799 12.637H17.0533C17.0387 12.637 17.0095 12.64 16.9657 12.6461C16.9219 12.6522 16.8928 12.6553 16.8782 12.6553C16.5572 12.6553 16.2581 12.5394 15.9809 12.3078C15.8787 12.2102 15.193 11.4908 13.9236 10.1496C13.8507 10.0643 13.7485 9.98501 13.6172 9.91185C13.5589 10.1069 13.4823 10.3874 13.3874 10.7532C13.2926 11.119 13.2233 11.3811 13.1795 11.5396L13.1139 11.8505C12.968 12.2773 12.6616 12.5333 12.1947 12.6187L11.8883 12.637H9.74349C8.53249 12.637 7.32514 12.1736 6.12144 11.247C4.91773 10.3203 3.8344 9.12236 2.87144 7.65311C1.90848 6.18386 1.01117 4.4738 0.179519 2.52293C0.106567 2.36442 0.0700912 2.18763 0.0700912 1.99254ZM13.2233 6.7295C12.9169 6.7295 12.6397 6.65939 12.3916 6.51917C12.1436 6.37895 12.0196 6.18691 12.0196 5.94305V1.73649C12.0196 1.49263 11.9466 1.31888 11.8007 1.21524C11.6548 1.1116 11.3995 1.05978 11.0347 1.05978L9.78726 1.09636C9.15988 1.09636 8.68569 1.18781 8.36471 1.3707C9.00668 1.62675 9.32767 2.04131 9.32767 2.61438V5.83331C9.29849 6.13814 9.15258 6.39114 8.88996 6.59233C8.62733 6.79351 8.33552 6.8941 8.01454 6.8941C7.57683 6.8941 7.24125 6.7173 7.0078 6.36371C5.86975 4.92494 5.02351 3.55933 4.46908 2.26688L4.27211 1.79136L1.36134 1.77307C1.17166 1.77307 1.06588 1.78221 1.044 1.8005C1.02211 1.81879 1.01117 1.87061 1.01117 1.95596C1.01117 2.0657 1.02576 2.18153 1.05494 2.30346L1.51454 3.32767C2.74013 5.97353 4.07149 8.05853 5.50864 9.58264C6.94579 11.1068 8.35741 11.8688 9.74349 11.8688H11.932C12.0196 11.8688 12.0852 11.8475 12.129 11.8048C12.1728 11.7621 12.2093 11.6798 12.2384 11.5579L12.2822 11.375L12.698 9.76554C12.8148 9.54606 12.9169 9.39975 13.0044 9.32659C13.1649 9.19247 13.3546 9.12541 13.5735 9.12541C13.9236 9.12541 14.2811 9.30221 14.6459 9.6558L16.5061 11.6311C16.6228 11.7896 16.7469 11.8688 16.8782 11.8688H20.4893C20.927 11.8688 21.1459 11.7774 21.1459 11.5945C21.1459 11.5335 21.124 11.4725 21.0802 11.4116L17.9068 8.1012C17.6588 7.84515 17.5347 7.57081 17.5347 7.27818C17.5347 6.98555 17.6515 6.70511 17.8849 6.43686C18.0746 6.19301 18.443 5.78759 18.9901 5.22062C19.5373 4.65365 20.0151 4.12326 20.4236 3.62944C20.8322 3.13563 21.1021 2.68754 21.2334 2.28517L21.299 2.04741C21.2845 2.02302 21.2772 1.9834 21.2772 1.92853C21.2772 1.87366 21.2699 1.82794 21.2553 1.79136H17.8193C17.6004 1.86451 17.4253 1.97425 17.294 2.12057L17.1627 2.46806C16.7979 3.30938 15.8423 4.60792 14.2957 6.36371C13.9893 6.60757 13.6318 6.7295 13.2233 6.7295Z" fill="#666666"/>
</svg>
