<svg xmlns="http://www.w3.org/2000/svg">
  <symbol viewBox="0 0 101 18" id="footer-logo">
    <g clip-path="url(#clip0_37030_445)">
      <path
        d="M1.26449 16.5385C0.36955 15.2762 -0.0747041 13.7627 1.02073e-05 12.2308V5.84615C-0.108365 4.29774 0.308071 2.75746 1.18546 1.46154C2.05478 0.461538 3.39829 0 5.37403 0C7.34978 0 8.61425 0.461538 9.40455 1.30769C10.2626 2.37941 10.6846 3.72136 10.59 5.07692V6.61539H6.71754V4.84615C6.74881 4.32289 6.66808 3.799 6.48045 3.30769C6.38016 3.10938 6.2212 2.9448 6.02403 2.83513C5.82686 2.72547 5.60049 2.67572 5.37403 2.69231C4.82082 2.69231 4.42568 2.84615 4.26762 3.23077C4.08883 3.77733 4.00862 4.34988 4.03053 4.92308V13.1538C3.98879 13.71 4.0978 14.267 4.34665 14.7692C4.5047 15.1538 4.89985 15.3077 5.45306 15.3077C6.00627 15.3077 6.32239 15.1538 6.48045 14.7692C6.66013 14.2494 6.74049 13.7019 6.71754 13.1538V11.3077H10.59V12.8462C10.6704 14.2238 10.2508 15.5852 9.40455 16.6923C8.61425 17.6154 7.27075 18.0769 5.37403 18.0769C3.47732 18 2.05478 17.5385 1.26449 16.5385Z"
        fill="#111111" />
      <path
        d="M15.2527 0.23077H19.7574L23.0767 17.7692H19.4413L18.8091 14.0769H16.2011L15.5689 17.7692H11.8545L15.2527 0.23077ZM18.493 11.7692L17.5446 4.92308L16.5962 11.7692H18.493Z"
        fill="#111111" />
      <path d="M25.8427 3.15385H23.1557V0.23077H32.5602V3.07692H29.8732V17.7692H25.8427V3.15385Z" fill="#111111" />
      <path
        d="M39.7519 0.23077H46.7066V2.07692H42.2019V7.84615H45.8372V9.61539H42.2019V16.0769H46.7066V17.8462H39.6729V0.23077H39.7519Z"
        fill="#111111" />
      <path
        d="M48.7613 0.23077H50.5L55.6369 11.8462V0.23077H57.6917V17.7692H56.1111L50.8951 5.76923V17.7692H48.7613V0.23077Z"
        fill="#111111" />
      <path
        d="M60.0626 0.23077H67.0172V2.07692H62.5125V7.84615H66.1479V9.61539H62.5125V16.0769H67.0172V17.8462H60.0626V0.23077Z"
        fill="#111111" />
      <path
        d="M69.072 0.23077H72.7074C74.1375 0.134618 75.5587 0.514353 76.7379 1.30769C77.6072 2 78.0024 3.23077 78.0024 4.84616C78.0024 7.07692 77.2911 8.46154 75.7895 8.92308L78.3185 17.6923H75.8686L73.4977 9.46154H71.5219V17.6923H68.993V0.23077H69.072ZM72.5493 7.76923C73.364 7.83458 74.1761 7.61652 74.8412 7.15385C75.3154 6.76923 75.5524 6 75.5524 4.84616C75.5743 4.27296 75.4941 3.7004 75.3154 3.15385C75.1375 2.76166 74.832 2.4373 74.446 2.23077C73.9017 1.98934 73.3042 1.8836 72.7074 1.92308H71.601V7.69231H72.5493V7.76923Z"
        fill="#111111" />
      <path
        d="M81.1635 16.4615C80.342 15.1166 79.9564 13.5617 80.0571 12V6.15384C80.0376 5.0391 80.1705 3.92679 80.4522 2.84615C80.7167 2.03863 81.2437 1.33668 81.9538 0.84615C82.8362 0.337746 83.8542 0.0967275 84.8779 0.153842C86.5375 0.153842 87.723 0.538458 88.4342 1.38461C89.2524 2.50191 89.6438 3.86237 89.5407 5.23077V5.84615H87.1698V5.30769C87.1733 4.66346 87.1205 4.0201 87.0117 3.38461C86.9451 2.98303 86.7177 2.62348 86.3795 2.38461C85.9353 2.10082 85.4081 1.96578 84.8779 2C84.3112 1.96465 83.7504 2.12843 83.2973 2.46154C83.1114 2.61401 82.9595 2.80181 82.8507 3.01344C82.742 3.22507 82.6788 3.45608 82.6651 3.6923C82.5609 4.37999 82.5081 5.07411 82.507 5.76923V12.3077C82.4488 13.3038 82.6104 14.3006 82.9812 15.2308C83.2973 15.8462 83.9295 16.0769 84.8779 16.0769C85.2523 16.1223 85.6322 16.0589 85.9697 15.8947C86.3072 15.7304 86.5873 15.4727 86.7746 15.1538C87.1922 14.1811 87.3812 13.1299 87.3278 12.0769V10.8462H85.036V9.07692H89.6197V17.7692H88.0391L87.802 15.7692C87.5948 16.4395 87.1634 17.0231 86.5763 17.4273C85.9892 17.8315 85.2801 18.0331 84.5618 18C83.9088 18.0374 83.2564 17.9164 82.6633 17.6479C82.0702 17.3794 81.5548 16.9717 81.1635 16.4615Z"
        fill="#111111" />
      <path
        d="M94.6776 11.6154L90.8052 0.307692H93.1761L95.9421 8.76923L98.6291 0.307692H101L97.1276 11.6154V17.7692H94.7567V11.6154H94.6776Z"
        fill="#111111" />
    </g>
  </symbol>

  <symbol viewBox="0 0 23 13" id="vk-icon">
    <path d="M0.0700912 1.99266C0.0700912 1.37082 0.493211 1.03552 1.33945 0.986745L4.60039 1.00503C4.81925 1.00503 4.96515 1.09648 5.03811 1.27938C5.37368 2.19385 5.74938 2.98334 6.16521 3.64785C6.58103 4.31237 7.12453 5.07748 7.79568 5.94317C7.85404 6.05291 7.94888 6.10778 8.08019 6.10778C8.18233 6.10778 8.26257 6.0651 8.32093 5.97975L8.38659 5.77857L8.40848 2.6145C8.40848 2.39503 8.34647 2.24871 8.22245 2.17556C8.09843 2.1024 7.86863 2.04753 7.53305 2.01095C7.27043 1.97437 7.13912 1.84025 7.13912 1.60859C7.13912 1.55981 7.14641 1.52323 7.161 1.49885C7.4674 0.706308 8.34282 0.310037 9.78726 0.310037L11.0129 0.291748C11.5673 0.291748 12.0269 0.407581 12.3916 0.639247C12.7564 0.870912 12.9388 1.2367 12.9388 1.73661V5.88831C13.0409 5.94927 13.1357 5.97975 13.2233 5.97975C13.4421 5.97975 13.6318 5.87002 13.7923 5.65054C15.3973 3.77283 16.2654 2.51696 16.3967 1.88293C16.3967 1.87073 16.4113 1.84025 16.4405 1.79148C16.5426 1.60859 16.7104 1.45008 16.9438 1.31595C17.1773 1.18183 17.3815 1.09039 17.5566 1.04161C17.615 1.01723 17.6806 1.00503 17.7536 1.00503H21.1459L21.3647 1.02332C21.6565 1.02332 21.8827 1.13916 22.0432 1.37082C22.1015 1.44398 22.1416 1.52323 22.1635 1.60859C22.1854 1.69394 22.2 1.77929 22.2073 1.86464C22.2146 1.94999 22.2182 1.99876 22.2182 2.01095V2.13898C22.1161 2.63889 21.8571 3.17233 21.4413 3.7393C21.0255 4.30627 20.4966 4.91897 19.8546 5.57739C19.2126 6.2358 18.8114 6.66865 18.6509 6.87593C18.5196 7.02225 18.4539 7.15637 18.4539 7.2783C18.4539 7.37584 18.5123 7.48558 18.629 7.60751L21.8243 10.9728C21.9994 11.1678 22.0869 11.3812 22.0869 11.6129C22.0869 11.8933 21.9556 12.125 21.693 12.3079C21.4304 12.4908 21.1167 12.5944 20.7519 12.6188L20.3799 12.6371H17.0533C17.0387 12.6371 17.0095 12.6401 16.9657 12.6462C16.9219 12.6523 16.8928 12.6554 16.8782 12.6554C16.5572 12.6554 16.2581 12.5396 15.9809 12.3079C15.8787 12.2103 15.193 11.491 13.9236 10.1497C13.8507 10.0644 13.7485 9.98513 13.6172 9.91197C13.5589 10.1071 13.4823 10.3875 13.3874 10.7533C13.2926 11.1191 13.2233 11.3812 13.1795 11.5397L13.1139 11.8506C12.968 12.2774 12.6616 12.5335 12.1947 12.6188L11.8883 12.6371H9.74349C8.53249 12.6371 7.32514 12.1738 6.12144 11.2471C4.91773 10.3204 3.8344 9.12248 2.87144 7.65323C1.90848 6.18398 1.01117 4.47392 0.179519 2.52306C0.106567 2.36455 0.0700912 2.18775 0.0700912 1.99266ZM13.2233 6.72962C12.9169 6.72962 12.6397 6.65951 12.3916 6.51929C12.1436 6.37907 12.0196 6.18703 12.0196 5.94317V1.73661C12.0196 1.49275 11.9466 1.319 11.8007 1.21536C11.6548 1.11172 11.3995 1.0599 11.0347 1.0599L9.78726 1.09648C9.15988 1.09648 8.68569 1.18793 8.36471 1.37082C9.00668 1.62687 9.32767 2.04143 9.32767 2.6145V5.83344C9.29849 6.13826 9.15258 6.39126 8.88996 6.59245C8.62733 6.79363 8.33552 6.89422 8.01454 6.89422C7.57683 6.89422 7.24125 6.71742 7.0078 6.36383C5.86975 4.92506 5.02351 3.55945 4.46908 2.267L4.27211 1.79148L1.36134 1.77319C1.17166 1.77319 1.06588 1.78233 1.044 1.80062C1.02211 1.81891 1.01117 1.87073 1.01117 1.95608C1.01117 2.06582 1.02576 2.18165 1.05494 2.30358L1.51454 3.32779C2.74013 5.97366 4.07149 8.05865 5.50864 9.58276C6.94579 11.1069 8.35741 11.8689 9.74349 11.8689H11.932C12.0196 11.8689 12.0852 11.8476 12.129 11.8049C12.1728 11.7623 12.2093 11.6799 12.2384 11.558L12.2822 11.3751L12.698 9.76566C12.8148 9.54619 12.9169 9.39987 13.0044 9.32671C13.1649 9.19259 13.3546 9.12553 13.5735 9.12553C13.9236 9.12553 14.2811 9.30233 14.6459 9.65592L16.5061 11.6312C16.6228 11.7897 16.7469 11.8689 16.8782 11.8689H20.4893C20.927 11.8689 21.1459 11.7775 21.1459 11.5946C21.1459 11.5336 21.124 11.4727 21.0802 11.4117L17.9068 8.10132C17.6588 7.84527 17.5347 7.57093 17.5347 7.2783C17.5347 6.98567 17.6515 6.70523 17.8849 6.43699C18.0746 6.19313 18.443 5.78771 18.9901 5.22074C19.5373 4.65377 20.0151 4.12338 20.4236 3.62956C20.8322 3.13575 21.1021 2.68766 21.2334 2.28529L21.299 2.04753C21.2845 2.02314 21.2772 1.98352 21.2772 1.92865C21.2772 1.87378 21.2699 1.82806 21.2553 1.79148H17.8193C17.6004 1.86464 17.4253 1.97437 17.294 2.12069L17.1627 2.46819C16.7979 3.3095 15.8423 4.60805 14.2957 6.36383C13.9893 6.60769 13.6318 6.72962 13.2233 6.72962Z" />
  </symbol>

  <symbol viewBox="0 0 16 16" id="inst-icon">
    <path d="M7.98438 0.0625C9.31771 0.0625 10.4062 0.078125 11.25 0.109375C11.9688 0.140625 12.6094 0.265625 13.1719 0.484375C13.7135 0.692708 14.1823 0.994792 14.5781 1.39062C14.974 1.78646 15.276 2.25521 15.4844 2.79687C15.7031 3.35937 15.8281 4 15.8594 4.71875C15.8906 5.5625 15.9062 6.65104 15.9062 7.98437C15.9062 9.31771 15.8906 10.4062 15.8594 11.25C15.8281 11.9687 15.7031 12.6094 15.4844 13.1719C15.276 13.7135 14.974 14.1823 14.5781 14.5781C14.1823 14.974 13.7135 15.276 13.1719 15.4844C12.6094 15.7031 11.9688 15.8281 11.25 15.8594C10.4062 15.8906 9.31771 15.9062 7.98438 15.9062C6.65104 15.9062 5.5625 15.8906 4.71875 15.8594C4 15.8281 3.35938 15.7031 2.79688 15.4844C2.25521 15.276 1.78646 14.974 1.39062 14.5781C0.994792 14.1823 0.692708 13.7135 0.484375 13.1719C0.265625 12.6094 0.140625 11.9687 0.109375 11.25C0.078125 10.4062 0.0625 9.31771 0.0625 7.98437C0.0625 6.65104 0.078125 5.5625 0.109375 4.71875C0.140625 4 0.265625 3.35937 0.484375 2.79687C0.692708 2.25521 0.994792 1.78646 1.39062 1.39062C1.78646 0.994792 2.25521 0.692708 2.79688 0.484375C3.35938 0.265625 4 0.140625 4.71875 0.109375C5.5625 0.078125 6.65104 0.0625 7.98438 0.0625ZM7.98438 1.09375C6.59896 1.09375 5.46875 1.10937 4.59375 1.14062C4.03125 1.16146 3.51042 1.26042 3.03125 1.4375C2.28125 1.75 1.75 2.28125 1.4375 3.03125C1.26042 3.51042 1.16146 4.03125 1.14062 4.59375C1.10938 5.46875 1.09375 6.59896 1.09375 7.98437C1.09375 9.36979 1.10938 10.5 1.14062 11.375C1.16146 11.9375 1.26042 12.4583 1.4375 12.9375C1.75 13.6875 2.28125 14.2187 3.03125 14.5312C3.51042 14.7083 4.03125 14.8073 4.59375 14.8281C5.46875 14.8594 6.59896 14.875 7.98438 14.875C9.36979 14.875 10.5 14.8594 11.375 14.8281C11.9375 14.8073 12.4583 14.7083 12.9375 14.5312C13.6875 14.2187 14.2188 13.6875 14.5312 12.9375C14.7083 12.4583 14.8073 11.9375 14.8281 11.375C14.8594 10.5 14.875 9.36979 14.875 7.98437C14.875 6.59896 14.8594 5.46875 14.8281 4.59375C14.8073 4.03125 14.7083 3.51042 14.5312 3.03125C14.2188 2.28125 13.6875 1.75 12.9375 1.4375C12.4583 1.26042 11.9375 1.16146 11.375 1.14062C10.5 1.10937 9.36979 1.09375 7.98438 1.09375ZM7.98438 11.1562C8.85938 11.1562 9.60677 10.8464 10.2266 10.2266C10.8464 9.60677 11.1562 8.85937 11.1562 7.98437C11.1562 7.10937 10.8464 6.36198 10.2266 5.74219C9.60677 5.1224 8.85938 4.8125 7.98438 4.8125C7.10938 4.8125 6.36198 5.1224 5.74219 5.74219C5.1224 6.36198 4.8125 7.10937 4.8125 7.98437C4.8125 8.85937 5.1224 9.60677 5.74219 10.2266C6.36198 10.8464 7.10938 11.1562 7.98438 11.1562ZM7.98438 3.92187C9.10938 3.92187 10.0677 4.31771 10.8594 5.10937C11.651 5.90104 12.0469 6.85937 12.0469 7.98437C12.0469 9.10937 11.651 10.0677 10.8594 10.8594C10.0677 11.651 9.10938 12.0469 7.98438 12.0469C6.85938 12.0469 5.90104 11.651 5.10938 10.8594C4.31771 10.0677 3.92188 9.10937 3.92188 7.98437C3.92188 6.85937 4.31771 5.90104 5.10938 5.10937C5.90104 4.31771 6.85938 3.92187 7.98438 3.92187ZM13.1719 3.76562C13.1719 4.02604 13.0781 4.2474 12.8906 4.42969C12.7031 4.61198 12.474 4.70312 12.2031 4.70312C11.9427 4.70312 11.7214 4.61198 11.5391 4.42969C11.3568 4.2474 11.2656 4.02604 11.2656 3.76562C11.2656 3.49479 11.3568 3.26562 11.5391 3.07812C11.7214 2.89062 11.9427 2.79687 12.2031 2.79687C12.4635 2.79687 12.6901 2.89323 12.8828 3.08594C13.0755 3.27865 13.1719 3.50521 13.1719 3.76562Z" />
  </symbol>

  <symbol viewBox="0 0 13 20" id="fb-icon">
    <path d="M11.5 0.833252H8.75001C7.53443 0.833252 6.36864 1.30674 5.5091 2.14957C4.64956 2.99239 4.16667 4.1355 4.16667 5.32743V8.02394H1.41667V11.6193H4.16667V18.81H7.83334V11.6193H10.5833L11.5 8.02394H7.83334V5.32743C7.83334 5.08905 7.92992 4.86042 8.10182 4.69186C8.27373 4.52329 8.50689 4.4286 8.75001 4.4286H11.5V0.833252Z" stroke-width="1.1" stroke-linecap="round" stroke-linejoin="round" />
  </symbol>

  <symbol viewBox="0 0 27 34" id="html-logo">
    <path d="M13.6426 0.0157537L13.5 0L0 1.40733V26.0129L13.5 34L27 26.0129V1.40733L13.6426 0.0157537ZM25.2344 25.0151L13.5 31.9573L1.76561 25.0151V14.9293L13.4507 21.8451L13.4701 23.0984L5.45351 18.3548L5.44295 19.5801L13.4894 24.3885L13.5088 25.675L5.46408 20.9174L5.45351 22.1427L13.5 26.9511L21.6239 22.1182V20.8929V16.909L25.2432 14.7595L25.2344 25.0151ZM25.2344 13.4519L22.0147 15.3319L20.5325 16.2071L13.4666 12.0201L13.456 13.2454L19.4957 16.818L19.4429 16.8495L19.3126 16.9247L18.4536 17.4166L13.4666 14.4689L13.456 15.6942L17.3921 18.0222L16.4591 18.6314L16.438 18.6436L13.4666 16.902L13.456 18.1273L15.4029 19.2615L13.4155 20.4483L1.7973 13.5762L13.4349 6.61831L25.2344 13.4519ZM25.2344 12.2266L13.4401 5.31075L1.76561 12.2196V2.9897L13.5 1.76442L25.2344 2.9897V12.2266Z" />
  </symbol>
</svg>