<svg width="101" height="19" fill="none" xmlns="http://www.w3.org/2000/svg"><g clip-path="url(#a)" fill="#111"><path d="M1.264 17.36A6.905 6.905 0 0 1 0 13.036V6.63a6.991 6.991 0 0 1 1.185-4.4C2.055 1.227 3.398.764 5.374.764s3.24.463 4.03 1.312a5.454 5.454 0 0 1 1.186 3.782v1.544H6.718V5.627a3.717 3.717 0 0 0-.238-1.544c-.1-.2-.259-.364-.456-.474a1.16 1.16 0 0 0-.65-.144c-.553 0-.948.155-1.106.54a4.878 4.878 0 0 0-.237 1.699v8.259a3.131 3.131 0 0 0 .316 1.62c.158.387.553.541 1.106.541s.87-.154 1.027-.54a4.41 4.41 0 0 0 .238-1.621v-1.852h3.872v1.543a5.808 5.808 0 0 1-1.185 3.86c-.79.926-2.134 1.389-4.031 1.389-1.897-.077-3.32-.54-4.11-1.544ZM15.253.996h4.504l3.32 17.599H19.44l-.632-3.705h-2.608l-.632 3.704h-3.715L15.253.997Zm3.24 11.578-.948-6.87-.949 6.87h1.897ZM25.843 3.929h-2.687V.996h9.404v2.856h-2.687v14.742h-4.03V3.93ZM39.752.996h6.955v1.852h-4.505v5.79h3.635v1.775h-3.635v6.483h4.505v1.776h-7.034V.996h.079ZM48.761.996H50.5l5.137 11.655V.996h2.055v17.599h-1.58L50.894 6.553v12.041h-2.134V.997ZM60.063.996h6.954v1.852h-4.504v5.79h3.635v1.775h-3.635v6.483h4.504v1.776h-6.954V.996ZM69.072.996h3.635a6.435 6.435 0 0 1 4.03 1.08c.87.695 1.265 1.93 1.265 3.551 0 2.238-.71 3.628-2.212 4.09l2.528 8.8h-2.45l-2.37-8.259h-1.976v8.26h-2.529V.995h.079Zm3.477 7.564a3.515 3.515 0 0 0 2.292-.617c.474-.386.711-1.158.711-2.316a4.88 4.88 0 0 0-.237-1.698 1.979 1.979 0 0 0-.869-.926 3.679 3.679 0 0 0-1.739-.31h-1.106v5.79h.948v.077ZM81.163 17.282a7.66 7.66 0 0 1-1.106-4.477V6.938c-.02-1.118.114-2.234.395-3.319a3.929 3.929 0 0 1 1.502-2.007c.882-.51 1.9-.752 2.924-.694 1.66 0 2.845.386 3.556 1.235a5.805 5.805 0 0 1 1.107 3.86v.617H87.17v-.54c.003-.647-.05-1.293-.158-1.93a1.539 1.539 0 0 0-.633-1.004 2.487 2.487 0 0 0-1.501-.386 2.41 2.41 0 0 0-1.58.463 1.75 1.75 0 0 0-.447.554 1.712 1.712 0 0 0-.186.681c-.104.69-.157 1.387-.158 2.084v6.561c-.058 1 .103 2 .474 2.934.316.617.949.849 1.897.849.374.045.754-.018 1.092-.183.337-.165.617-.424.805-.744a6.954 6.954 0 0 0 .553-3.087v-1.235h-2.292V9.872h4.584v8.722h-1.58l-.238-2.007a3.154 3.154 0 0 1-1.226 1.664 3.28 3.28 0 0 1-2.014.574 4.034 4.034 0 0 1-1.899-.353 3.935 3.935 0 0 1-1.5-1.19ZM94.678 12.42 90.805 1.072h2.371l2.766 8.49 2.687-8.49H101l-3.873 11.346v6.175h-2.37V12.42h-.08Z"/></g><defs><clipPath id="a"><path fill="#fff" transform="translate(0 .764)" d="M0 0h101v18.062H0z"/></clipPath></defs></svg>