<svg xmlns="http://www.w3.org/2000/svg"><style>:root svg:not(:target){display:none}</style><svg fill="none" id="fb-icon" viewBox="0 0 13 20"><path d="M11.5.833H8.75A4.63 4.63 0 0 0 5.51 2.15a4.45 4.45 0 0 0-1.343 3.177v2.697h-2.75v3.595h2.75v7.191h3.666v-7.19h2.75l.917-3.596H7.833V5.327a.89.89 0 0 1 .269-.635.926.926 0 0 1 .648-.263h2.75V.833Z" stroke="#666" stroke-width="1.1" stroke-linecap="round" stroke-linejoin="round"></path></svg><svg fill="none" id="footer-logo" viewBox="0 0 101 19"><g clip-path="url(#footer-logo_0)" fill="#111"><path d="M1.264 17.36A6.905 6.905 0 0 1 0 13.036V6.63a6.991 6.991 0 0 1 1.185-4.4C2.055 1.227 3.398.764 5.374.764s3.24.463 4.03 1.312a5.454 5.454 0 0 1 1.186 3.782v1.544H6.718V5.627a3.717 3.717 0 0 0-.238-1.544c-.1-.2-.259-.364-.456-.474a1.16 1.16 0 0 0-.65-.144c-.553 0-.948.155-1.106.54a4.878 4.878 0 0 0-.237 1.699v8.259a3.131 3.131 0 0 0 .316 1.62c.158.387.553.541 1.106.541s.87-.154 1.027-.54a4.41 4.41 0 0 0 .238-1.621v-1.852h3.872v1.543a5.808 5.808 0 0 1-1.185 3.86c-.79.926-2.134 1.389-4.031 1.389-1.897-.077-3.32-.54-4.11-1.544ZM15.253.996h4.504l3.32 17.599H19.44l-.632-3.705h-2.608l-.632 3.704h-3.715L15.253.997Zm3.24 11.578-.948-6.87-.949 6.87h1.897ZM25.843 3.929h-2.687V.996h9.404v2.856h-2.687v14.742h-4.03V3.93ZM39.752.996h6.955v1.852h-4.505v5.79h3.635v1.775h-3.635v6.483h4.505v1.776h-7.034V.996h.079ZM48.761.996H50.5l5.137 11.655V.996h2.055v17.599h-1.58L50.894 6.553v12.041h-2.134V.997ZM60.063.996h6.954v1.852h-4.504v5.79h3.635v1.775h-3.635v6.483h4.504v1.776h-6.954V.996ZM69.072.996h3.635a6.435 6.435 0 0 1 4.03 1.08c.87.695 1.265 1.93 1.265 3.551 0 2.238-.71 3.628-2.212 4.09l2.528 8.8h-2.45l-2.37-8.259h-1.976v8.26h-2.529V.995h.079Zm3.477 7.564a3.515 3.515 0 0 0 2.292-.617c.474-.386.711-1.158.711-2.316a4.88 4.88 0 0 0-.237-1.698 1.979 1.979 0 0 0-.869-.926 3.679 3.679 0 0 0-1.739-.31h-1.106v5.79h.948v.077ZM81.163 17.282a7.66 7.66 0 0 1-1.106-4.477V6.938c-.02-1.118.114-2.234.395-3.319a3.929 3.929 0 0 1 1.502-2.007c.882-.51 1.9-.752 2.924-.694 1.66 0 2.845.386 3.556 1.235a5.805 5.805 0 0 1 1.107 3.86v.617H87.17v-.54c.003-.647-.05-1.293-.158-1.93a1.539 1.539 0 0 0-.633-1.004 2.487 2.487 0 0 0-1.501-.386 2.41 2.41 0 0 0-1.58.463 1.75 1.75 0 0 0-.447.554 1.712 1.712 0 0 0-.186.681c-.104.69-.157 1.387-.158 2.084v6.561c-.058 1 .103 2 .474 2.934.316.617.949.849 1.897.849.374.045.754-.018 1.092-.183.337-.165.617-.424.805-.744a6.954 6.954 0 0 0 .553-3.087v-1.235h-2.292V9.872h4.584v8.722h-1.58l-.238-2.007a3.154 3.154 0 0 1-1.226 1.664 3.28 3.28 0 0 1-2.014.574 4.034 4.034 0 0 1-1.899-.353 3.935 3.935 0 0 1-1.5-1.19ZM94.678 12.42 90.805 1.072h2.371l2.766 8.49 2.687-8.49H101l-3.873 11.346v6.175h-2.37V12.42h-.08Z"></path></g><defs><clipPath id="footer-logo_0"><path fill="#fff" transform="translate(0 .764)" d="M0 0h101v18.062H0z"></path></clipPath></defs></svg><svg fill="none" id="html-academy" viewBox="0 0 27 34"><path d="M13.643.016 13.5 0 0 1.407v24.606L13.5 34 27 26.013V1.407L13.643.016Zm11.591 25L13.5 31.956 1.766 25.015V14.93l11.685 6.916.02 1.253-8.017-4.743-.011 1.225 8.046 4.809.02 1.286-8.045-4.758-.01 1.226L13.5 26.95l8.124-4.833V16.91l3.62-2.15-.01 10.256Zm0-11.564-3.22 1.88-1.482.875-7.065-4.187-.011 1.225 6.04 3.573-.053.031-.13.076-.86.492-4.986-2.948-.011 1.225 3.936 2.328-.933.61-.021.012-2.971-1.742-.011 1.225 1.947 1.135-1.988 1.186-11.618-6.872 11.638-6.958 11.8 6.834Zm0-1.225L13.44 5.31 1.766 12.22V2.99L13.5 1.764 25.234 2.99v9.237Z" fill="#666"></path></svg><svg fill="none" id="inst-icon" viewBox="0 0 16 16"><path d="M7.984.063c1.334 0 2.422.015 3.266.046.719.032 1.36.157 1.922.375.541.209 1.01.51 1.406.907.396.395.698.864.906 1.406.22.562.344 1.203.375 1.922.032.843.047 1.932.047 3.265 0 1.334-.015 2.422-.047 3.266-.03.719-.156 1.36-.375 1.922a3.987 3.987 0 0 1-.906 1.406 3.987 3.987 0 0 1-1.406.906c-.563.22-1.203.344-1.922.375-.844.032-1.932.047-3.266.047a91.88 91.88 0 0 1-3.265-.047c-.719-.03-1.36-.156-1.922-.375a3.987 3.987 0 0 1-1.406-.906 3.987 3.987 0 0 1-.907-1.406C.266 12.609.141 11.969.11 11.25a91.735 91.735 0 0 1-.046-3.266c0-1.333.015-2.421.046-3.265.032-.719.157-1.36.375-1.922.209-.542.51-1.01.907-1.406A3.987 3.987 0 0 1 2.797.484C3.359.266 4 .141 4.719.11A91.733 91.733 0 0 1 7.984.063Zm0 1.03c-1.385 0-2.515.016-3.39.048-.563.02-1.084.12-1.563.296a2.853 2.853 0 0 0-1.594 1.594c-.177.48-.276 1-.296 1.563a98.83 98.83 0 0 0-.047 3.39c0 1.386.015 2.516.047 3.391.02.563.12 1.083.296 1.563.313.75.844 1.28 1.594 1.593.48.177 1 .276 1.563.297.875.031 2.005.047 3.39.047 1.386 0 2.516-.016 3.391-.047a5.015 5.015 0 0 0 1.563-.297 2.852 2.852 0 0 0 1.593-1.594c.177-.479.276-1 .297-1.562.031-.875.047-2.005.047-3.39 0-1.386-.016-2.516-.047-3.391a5.015 5.015 0 0 0-.297-1.563 2.853 2.853 0 0 0-1.594-1.594c-.479-.177-1-.276-1.562-.296a98.803 98.803 0 0 0-3.39-.047Zm0 10.063c.875 0 1.623-.31 2.243-.93.62-.62.93-1.367.93-2.242s-.31-1.622-.93-2.242a3.056 3.056 0 0 0-2.243-.93c-.875 0-1.622.31-2.242.93-.62.62-.93 1.367-.93 2.242s.31 1.623.93 2.243c.62.62 1.367.93 2.242.93Zm0-7.234c1.125 0 2.084.396 2.875 1.187.792.792 1.188 1.75 1.188 2.875s-.396 2.084-1.188 2.875c-.791.792-1.75 1.188-2.875 1.188s-2.083-.396-2.875-1.188c-.791-.791-1.187-1.75-1.187-2.875s.396-2.083 1.187-2.875c.792-.791 1.75-1.187 2.875-1.187Zm5.188-.156c0 .26-.094.481-.281.664a.949.949 0 0 1-.688.273.904.904 0 0 1-.664-.273.904.904 0 0 1-.273-.664c0-.271.09-.5.273-.688a.891.891 0 0 1 .664-.281.93.93 0 0 1 .68.289.93.93 0 0 1 .289.68Z" fill="#666"></path></svg><svg fill="none" id="vk-icon" viewBox="0 0 23 13"><path d="M.07 1.993c0-.622.423-.958 1.27-1.006l3.26.018c.22 0 .365.091.438.274.336.915.711 1.704 1.127 2.369.416.664.96 1.43 1.63 2.295.059.11.154.165.285.165a.276.276 0 0 0 .24-.128l.067-.202.021-3.164c0-.22-.062-.365-.186-.439-.124-.073-.353-.128-.689-.164-.263-.037-.394-.17-.394-.403 0-.048.007-.085.022-.11C7.467.707 8.343.31 9.787.31l1.226-.018c.554 0 1.014.115 1.379.347.364.232.547.598.547 1.097v4.152a.562.562 0 0 0 .284.092c.22 0 .409-.11.57-.33 1.604-1.877 2.472-3.133 2.604-3.767a.29.29 0 0 1 .044-.092c.102-.183.27-.341.503-.475.233-.134.438-.226.613-.275a.507.507 0 0 1 .197-.036h3.392l.219.018c.292 0 .518.116.678.348a.63.63 0 0 1 .12.237c.022.086.037.171.044.257.008.085.011.134.011.146v.128c-.102.5-.36 1.033-.777 1.6-.415.567-.944 1.18-1.586 1.838-.642.659-1.044 1.092-1.204 1.299-.131.146-.197.28-.197.402 0 .098.058.207.175.33l3.195 3.365a.94.94 0 0 1 .263.64c0 .28-.131.512-.394.695a1.826 1.826 0 0 1-.941.31l-.372.019h-3.327a.794.794 0 0 0-.087.01.802.802 0 0 1-.088.008c-.32 0-.62-.116-.897-.347a182.96 182.96 0 0 1-2.057-2.158 1.107 1.107 0 0 0-.307-.238 25.6 25.6 0 0 0-.23.841c-.094.366-.164.628-.207.787l-.066.31c-.146.427-.452.683-.92.769l-.306.018H9.743c-1.21 0-2.418-.463-3.622-1.39-1.203-.927-2.287-2.125-3.25-3.594-.963-1.47-1.86-3.18-2.691-5.13a1.254 1.254 0 0 1-.11-.53Zm13.153 4.736a1.66 1.66 0 0 1-.831-.21c-.248-.14-.372-.332-.372-.576V1.736c0-.243-.073-.417-.22-.52-.145-.104-.4-.156-.765-.156l-1.248.036c-.627 0-1.101.092-1.422.275.642.256.963.67.963 1.243v3.22c-.03.304-.175.557-.438.758a1.405 1.405 0 0 1-.875.302c-.438 0-.774-.177-1.007-.53-1.138-1.44-1.984-2.805-2.539-4.097l-.197-.476-2.91-.018c-.19 0-.296.01-.318.028-.022.018-.033.07-.033.155 0 .11.015.226.044.347l.46 1.025C2.74 5.974 4.07 8.058 5.509 9.583c1.437 1.524 2.848 2.286 4.234 2.286h2.189c.088 0 .153-.021.197-.064.044-.043.08-.125.11-.247l.043-.183.416-1.61c.117-.219.219-.365.306-.438a.86.86 0 0 1 .57-.202c.35 0 .707.177 1.072.53l1.86 1.976c.117.159.24.238.372.238h3.611c.438 0 .657-.092.657-.274a.312.312 0 0 0-.066-.183l-3.173-3.31c-.248-.257-.372-.531-.372-.824 0-.292.116-.573.35-.841.19-.244.558-.65 1.105-1.216a28.203 28.203 0 0 0 1.434-1.592c.408-.493.678-.941.81-1.344l.065-.238a.243.243 0 0 1-.022-.118c0-.055-.007-.101-.022-.138H17.82a1.199 1.199 0 0 0-.525.33l-.131.347c-.365.841-1.32 2.14-2.867 3.896a1.672 1.672 0 0 1-1.073.365Z" fill="#666"></path></svg></svg>